{"title":"The.Hessen.Affair.2009.720p.BRRip.x264.Feel-Free","uid":6310127,"size":2818961015,"categoryP":"video","categoryS":"hd___movies","magnet":"?xt=urn:btih:d4c25945da52e274aa1cf83f3b5549a53bb2d6bd&amp;dn=The.Hessen.Affair.2009.720p.BRRip.x264.Feel-Free&amp;tr=udp%3A%2F%2Ftracker.openbittorrent.com%3A80&amp;tr=udp%3A%2F%2Fopen.demonii.com%3A1337&amp;tr=udp%3A%2F%2Ftracker.coppersurfer.tk%3A6969&amp;tr=udp%3A%2F%2Fexodus.desync.com%3A6969","seeders":0,"leechers":2,"uploader":"qwersd","files":10,"time":1302507068,"description":"Genre:Crime | Drama | History\nLanguage:English\nIMDb:http://www.imdb.com/title/tt1153106/\nSource:1080p.BluRay.x264-SAiMORNY Thanks!\nSubtitles:Romana\n\n\nFormat : MPEG-4\nFormat profile : Base Media\nCodec ID : isom\nFile size : 2.62 GiB\nDuration : 1h 51mn\nOverall bit rate : 3 379 Kbps\n\n\nVideo\nFormat profile : &lt;a class=&quot;__cf_email__&quot; href=&quot;/cdn-cgi/l/email-protection&quot; data-cfemail=&quot;d098b9b7b8909ce4fee1&quot;&gt;[email&amp;#160;protected]&lt;/a&gt;&lt;script cf-hash='f9e31' type=&quot;text/javascript&quot;&gt;\n/* &lt;![CDATA[ */!function(){try{var t=&quot;currentScript&quot;in document?document.currentScript:function(){for(var t=document.getElementsByTagName(&quot;script&quot;),e=t.length;e--;)if(t[e].getAttribute(&quot;cf-hash&quot;))return t[e]}();if(t&amp;&amp;t.previousSibling){var e,r,n,i,c=t.previousSibling,a=c.getAttribute(&quot;data-cfemail&quot;);if(a){for(e=&quot;&quot;,r=parseInt(a.substr(0,2),16),n=2;a.length-n;n+=2)i=parseInt(a.substr(n,2),16)^r,e+=String.fromCharCode(i);e=document.createTextNode(e),c.parentNode.replaceChild(e,c)}}}catch(u){}}();/* ]]&gt; */&lt;/script&gt;\nFormat settings, CABAC : Yes\nFormat settings, ReFrames : 3 frames\nCodec ID : avc1\nCodec ID/Info : Advanced Video Coding\nDuration : 1h 51mn\nBit rate mode : Variable\nBit rate : 3 000 Kbps\nMaximum bit rate : 27.6 Mbps\nWidth : 1 280 pixels\nHeight : 696 pixels\nDisplay aspect ratio : 16:9\nFrame rate mode : Constant\nFrame rate : 23.976 fps\nColor space : YUV\nChroma subsampling : 4:2:0\nBit depth : 8 bits\nScan type : Progressive\nBits/(Pixel*Frame) : 0.140\nStream size : 2.27 GiB (87%)\nWriting library : x264\n\n\nAudio\nID : 2\nFormat : AAC\nFormat/Info : Advanced Audio Codec\nFormat version : Version 4\nFormat profile : LC\nFormat settings, SBR : No\nCodec ID : 40\nDuration : 1h 51mn\nBit rate mode : Variable\nBit rate : 445 Kbps\nMaximum bit rate : 522 Kbps\nChannel(s) : 6 channels\nChannel positions : Front: L C R, Side: L R, LFE\nSampling rate : 48.0 KHz\nStream size : 354 MiB (13%)\n\n\nPlot:\nIn 1945 a group of victorious American officers discover a stash of German jewels and try to fence them in New York.","torrent":{"xt":"urn:btih:d4c25945da52e274aa1cf83f3b5549a53bb2d6bd","amp;dn":"The.Hessen.Affair.2009.720p.BRRip.x264.Feel-Free","amp;tr":["udp%3A%2F%2Ftracker.openbittorrent.com%3A80","udp%3A%2F%2Fopen.demonii.com%3A1337","udp%3A%2F%2Ftracker.coppersurfer.tk%3A6969","udp%3A%2F%2Fexodus.desync.com%3A6969"],"infoHash":"d4c25945da52e274aa1cf83f3b5549a53bb2d6bd","infoHashBuffer":{"type":"Buffer","data":[212,194,89,69,218,82,226,116,170,28,248,63,59,85,73,165,59,178,214,189]},"announce":[],"urlList":[]}}